USFL
nRows=176
nColumns=2
inDegrees=yes
endheader
time	soleus_r	
3.99974	 38.473641	
4.06224	 38.138663	
4.12474	 35.311440	
4.18723	 36.165633	
4.24973	 37.674915	
4.31222	 37.627639	
4.37472	 38.188858	
4.43722	 36.195754	
4.49971	 36.047180	
4.56221	 36.900753	
4.6247	 35.882303	
4.6872	 36.061244	
4.7497	 37.292423	
4.81219	 36.468053	
4.87469	 36.280643	
4.93718	 35.241498	
4.99968	 35.874131	
5.06218	 35.886166	
5.12467	 35.072135	
5.18717	 35.656658	
5.24966	 35.101059	
5.31216	 33.401014	
5.37466	 34.890866	
5.43715	 35.537889	
5.49965	 34.830057	
5.56214	 34.095334	
5.62464	 34.095334	
5.68714	 37.317458	
5.74963	 34.322867	
5.81213	 28.528075	
5.87462	 26.715826	
5.93712	 26.733327	
5.99962	 18.993319	
6.06211	 19.744967	
6.12461	 19.925274	
6.1871	 19.782827	
6.2496	 24.426965	
6.3121	 24.224465	
6.37459	 23.282624	
6.43709	 23.659354	
6.49958	 21.518828	
6.56208	 22.200845	
6.62458	 18.712015	
6.68707	 19.417867	
6.74957	 19.822010	
6.81206	 21.262399	
6.87456	 23.260372	
6.93706	 23.011346	
6.99955	 23.234579	
7.06205	 21.066955	
7.12454	 25.975576	
7.18704	 22.008806	
7.24954	 22.467456	
7.31203	 22.535526	
7.37453	 21.270002	
7.43702	 21.712505	
7.49952	 21.702679	
7.56202	 20.877242	
7.62451	 23.844541	
7.68701	 24.754954	
7.7495	 29.143448	
7.812	 23.865681	
7.8745	 27.554246	
7.93699	 26.936405	
7.99949	 25.272926	
8.06198	 25.250340	
8.12448	 24.540560	
8.18698	 23.414044	
8.24947	 23.199302	
8.31197	 24.526405	
8.37446	 24.116499	
8.43696	 23.960846	
8.49946	 26.643806	
8.56195	 24.483543	
8.62445	 24.483543	
8.68694	 26.866558	
8.74944	 25.765755	
8.81194	 25.894668	
8.87443	 25.952927	
8.93693	 26.057630	
8.99942	 25.889194	
9.06192	 27.004337	
9.12442	 24.336648	
9.18691	 24.487587	
9.24941	 24.610971	
9.3119	 24.321414	
9.3744	 24.361406	
9.4369	 24.408051	
9.49939	 24.711974	
9.56189	 24.729857	
9.62438	 24.995441	
9.68688	 25.389369	
9.74938	 25.466338	
9.81187	 25.624957	
9.87437	 26.294571	
9.93686	 27.347761	
9.99936	 27.408867	
10.0619	 28.155355	
10.1244	 23.400857	
10.1868	 24.073899	
10.2493	 23.943255	
10.3118	 23.949919	
10.3743	 25.575533	
10.4368	 25.906794	
10.4993	 25.559800	
10.5618	 25.730084	
10.6243	 24.247973	
10.6868	 27.314485	
10.7493	 26.151338	
10.8118	 25.927038	
10.8743	 25.249831	
10.9368	 25.975582	
10.9993	 26.133476	
11.0618	 26.009721	
11.1243	 24.647336	
11.1868	 23.872047	
11.2493	 23.864988	
11.3118	 23.964426	
11.3743	 24.037999	
11.4368	 24.130152	
11.4993	 24.033402	
11.5618	 24.115509	
11.6243	 23.857482	
11.6868	 23.959371	
11.7492	 24.156054	
11.8117	 24.133669	
11.8742	 24.363237	
11.9367	 24.781305	
11.9992	 24.773480	
12.0617	 25.039275	
12.1242	 25.402294	
12.1867	 25.469268	
12.2492	 26.448760	
12.3117	 26.238530	
12.3742	 26.186603	
12.4367	 26.218072	
12.4992	 33.098590	
12.5617	 32.785889	
12.6242	 35.064220	
12.6867	 33.730180	
12.7492	 32.862241	
12.8117	 31.975726	
12.8742	 33.990324	
12.9367	 34.033389	
12.9992	 33.570016	
13.0617	 34.106605	
13.1242	 33.970413	
13.1867	 30.988446	
13.2492	 31.497465	
13.3116	 31.780611	
13.3741	 31.432623	
13.4366	 30.581425	
13.4991	 30.499295	
13.5616	 32.071802	
13.6241	 33.717520	
13.6866	 30.998615	
13.7491	 32.140452	
13.8116	 28.822299	
13.8741	 29.285783	
13.9366	 31.616540	
13.9991	 31.724716	
14.0616	 30.607863	
14.1241	 31.021367	
14.1866	 31.748363	
14.2491	 31.282221	
14.3116	 30.387554	
14.3741	 32.494213	
14.4366	 31.477542	
14.4991	 31.988088	
14.5616	 29.012896	
14.6241	 29.012896	
14.6866	 29.736862	
14.7491	 27.508464	
14.8116	 25.710031	
14.874	 28.673870	
14.9365	 28.900544	
